<svg width="1440" height="1236" viewBox="0 0 1440 1236" xmlns="http://www.w3.org/2000/svg">
<svg width="1440" height="848" viewBox="0 0 1440 848" fill="none" xmlns="http://www.w3.org/2000/svg">
<mask id="mask0" mask-type="alpha" maskUnits="userSpaceOnUse" x="0" y="0" width="1440" height="848">
<rect width="1440" height="848" fill="#15172F"/>
</mask>
<g mask="url(#mask0)">
<path d="M436.155 -333.67L-839.106 -640.641C-886.06 -651.943 -933.947 -625.775 -946.064 -582.194L-1275.16 601.477C-1287.28 645.058 -1259.04 689.551 -1212.08 700.853L63.1795 1007.82C110.133 1019.13 158.02 992.958 170.137 949.376L499.233 -234.294C511.35 -277.876 483.109 -322.368 436.155 -333.67Z" stroke="#0A0C18" stroke-width="2"/>
<path d="M2263.89 -811.6L988.624 -1118.57C941.67 -1129.87 893.784 -1103.71 881.667 -1060.12L552.571 123.547C540.454 167.128 568.695 211.621 615.649 222.923L1890.91 529.893C1937.86 541.196 1985.75 515.028 1997.87 471.446L2326.96 -712.224C2339.08 -755.806 2310.84 -800.298 2263.89 -811.6Z" stroke="#0A0C18" stroke-width="2"/>
<path d="M2479.52 -232.966L2102.71 -1490.19C2088.84 -1536.47 2042.14 -1564.71 1998.41 -1553.25L810.674 -1242.05C766.943 -1230.59 742.738 -1183.77 756.612 -1137.48L1133.42 119.735C1147.29 166.025 1193.99 194.261 1237.72 182.803L2425.46 -128.404C2469.19 -139.862 2493.4 -186.676 2479.52 -232.966Z" stroke="#0A0C18" stroke-width="2"/>
<path d="M1003.8 1663.7C1319.21 1663.7 1574.91 1407.83 1574.91 1092.2C1574.91 776.571 1319.21 520.702 1003.8 520.702C688.391 520.702 432.7 776.571 432.7 1092.2C432.7 1407.83 688.391 1663.7 1003.8 1663.7Z" stroke="#0A0C18" stroke-width="2"/>
<path d="M1150.7 1291C1324.83 1291 1465.98 1149.75 1465.98 975.5C1465.98 801.254 1324.83 660 1150.7 660C976.576 660 835.42 801.254 835.42 975.5C835.42 1149.75 976.576 1291 1150.7 1291Z" stroke="#0A0C18" stroke-width="2"/>
<path d="M-337.266 792C-73.7327 792 139.903 593.215 139.903 348C139.903 102.786 -73.7327 -96 -337.266 -96C-600.799 -96 -814.434 102.786 -814.434 348C-814.434 593.215 -600.799 792 -337.266 792Z" stroke="#0A0C18" stroke-width="2"/>
</g>
</svg>
<svg width="1440" height="388" viewBox="0 0 1440 388" fill="none" y="848" xmlns="http://www.w3.org/2000/svg">
<mask id="mask0" mask-type="alpha" maskUnits="userSpaceOnUse" x="0" y="0" width="1440" height="388">
<rect width="1440" height="388" fill="#F0F1FD"/>
</mask>
<g mask="url(#mask0)">
<g style="mix-blend-mode:multiply" opacity="0.15">
<path d="M1003.1 815C1318.52 815 1574.21 559.131 1574.21 243.5C1574.21 -72.1304 1318.52 -328 1003.1 -328C687.692 -328 432 -72.1304 432 243.5C432 559.131 687.692 815 1003.1 815Z" stroke="#5258FB" stroke-width="2"/>
</g>
<g style="mix-blend-mode:multiply" opacity="0.15">
<path d="M1150.28 443C1324.41 443 1465.56 301.746 1465.56 127.5C1465.56 -46.7457 1324.41 -188 1150.28 -188C976.156 -188 835 -46.7457 835 127.5C835 301.746 976.156 443 1150.28 443Z" stroke="#5258FB" stroke-width="2"/>
</g>
<g style="mix-blend-mode:multiply" opacity="0.15">
<path d="M436.255 -1180.57L-839.007 -1487.54C-885.961 -1498.84 -933.847 -1472.67 -945.964 -1429.09L-1275.06 -245.418C-1287.18 -201.836 -1258.94 -157.344 -1211.98 -146.042L63.279 160.928C110.233 172.231 158.119 146.063 170.236 102.482L499.332 -1081.19C511.449 -1124.77 483.209 -1169.26 436.255 -1180.57Z" stroke="#5258FB" stroke-width="2"/>
</g>
</g>
</svg>

</svg>
