<svg xmlns="http://www.w3.org/2000/svg" width="40" height="40" fill="none"><path fill="currentColor" fill-rule="evenodd" d="M18.67 23.039c0-.453-.182-.887-.498-1.206-.327-.32-.759-.5-1.21-.5H1.709c-.451 0-.883.18-1.2.5-.327.32-.509.753-.509 1.206v15.255c0 .452.182.886.509 1.206.317.32.749.5 1.2.5h15.253c.451 0 .883-.18 1.21-.5.316-.32.498-.754.498-1.206V23.039ZM30.008 20C35.527 20 40 24.48 40 30s-4.473 10-9.993 10c-5.52 0-10.002-4.48-10.002-10s4.483-10 10.002-10ZM10.002 0c5.52 0 10.003 4.48 10.003 10s-4.483 10-10.003 10C4.482 20 0 15.52 0 10S4.483 0 10.002 0ZM40 0H21.34c0 10.31 8.35 18.666 18.66 18.666V0Z" clip-rule="evenodd"/></svg>