<svg xmlns="http://www.w3.org/2000/svg" width="540" height="540" style="width:100%;height:100%;transform:translate3d(0,0,0);content-visibility:visible"><defs><clipPath id="a"><path d="M0 0h540v540H0z"/></clipPath><clipPath id="b"><path d="M0 0h540v540H0z"/></clipPath><clipPath id="c"><path d="M0 0h540v540H0z"/></clipPath></defs><g clip-path="url(#a)"><g clip-path="url(#b)" style="display:block"><g clip-path="url(#c)" style="display:block"><path fill="#FFBF55" d="m13.007-22.023-13.108.114-13.107.115-13.007 11.638L.283 22.023l25.932-32.638-13.208-11.408z" style="display:block" transform="matrix(8 0 0 8 269.55 287.18)"/><path fill="#5258F4" d="M10.764-16.284 9.502-4.053l-16.13 20.317 17.392-32.548z" style="display:block" transform="matrix(8 0 0 8 324.842 333.258)"/><path fill="#FFF" d="M2.039 5.839 8.036-5.832l-5.431.07-.566 11.6z" style="display:block" transform="matrix(8 0 0 8 255.548 158.386)"/><path fill="none" stroke="#15182F" stroke-width="3.003" d="m73.974-158 82.066 87.654" style="display:block" transform="translate(270 270)"/><path fill="none" stroke="#15182F" stroke-width="4.034" d="m-4.183-160.483-22.07 95.263L2.875 194.75" style="display:block" transform="translate(270 270)"/><path fill="none" stroke="#FFF" stroke-miterlimit="10" stroke-width=".988" d="M-5.529-6.664 5.529 6.664" style="display:block" transform="rotate(29.182 -463.367 571.992) scale(8)"/><path fill="none" stroke="#15182F" stroke-miterlimit="10" stroke-width=".75" d="m-10.538.092 37.809-.331" style="display:block" transform="matrix(8 0 0 8 278 204.022)"/><path fill="none" stroke="#15182F" stroke-miterlimit="10" stroke-width=".045" d="M9.565-12.039-9.737 12.188" style="display:block" transform="matrix(8 0 0 8 348.341 367.052)"/><path fill="#5258F4" d="m.952-.914-.893-3.98-.934 3.94L-5.424.467l4.508.853.975 3.574 1.462-3.615S5.583.102 5.42 0C5.257-.102.952-.914.952-.914z" style="display:block" transform="matrix(4.62298 0 0 4.62298 425.588 258.917)"/><path fill="#5258F4" d="m.952-.914-.893-3.98-.934 3.94L-5.424.467l4.508.853.975 3.574 1.462-3.615S5.583.102 5.42 0C5.257-.102.952-.914.952-.914z" style="display:block" transform="matrix(4.62298 0 0 4.62298 116.555 127.351)"/></g><path fill="#5258F4" d="m-29.56-15.915 24.7 30.038-1.69 2.127-23.01-32.165z" style="display:block" transform="matrix(8 0 0 8 324.842 333.258)"/><path fill="#FFF" d="M-9.674 5.806 10.97-5.778l-9.611.077L-9.674 5.806z" style="display:block" transform="matrix(8 0 0 8 167.519 158.386)"/><path fill="none" stroke="#15182F" stroke-width="4.597" d="m-92.19-157.066-90.339 92.82L2 194" style="display:block" transform="translate(270 270)"/><path fill="none" stroke="#FFF" stroke-miterlimit="10" stroke-width=".427" d="M-5.529-6.664 5.529 6.664" style="display:block" transform="rotate(9.727 -1670.847 1129.417) scale(8)"/><path fill="none" stroke="#15182F" stroke-miterlimit="10" stroke-width=".75" d="m-27.271.239 3.642-.032" style="display:block" transform="matrix(8 0 0 8 278 204.022)"/><path fill="#5258F4" d="m.952-.914-.893-3.98-.934 3.94L-5.424.467l4.508.853.975 3.574 1.462-3.615S5.583.102 5.42 0C5.257-.102.952-.914.952-.914z" style="display:block" transform="translate(425.588 315.626) scale(1.05466)"/><path fill="#5258F4" d="m.952-.914-.893-3.98-.934 3.94L-5.424.467l4.508.853.975 3.574 1.462-3.615S5.583.102 5.42 0C5.257-.102.952-.914.952-.914z" style="display:block" transform="matrix(.04052 0 0 .04052 209.555 378.064)"/></g></g></svg>