<svg xmlns="http://www.w3.org/2000/svg" width="1080" height="1080" style="width:100%;height:100%;transform:translate3d(0,0,0);content-visibility:visible"><defs><mask id="g" mask-type="alpha"/><mask id="f" mask-type="alpha"><path fill="#5258F4" d="M20 0c0 11.046-8.954 20-20 20s-20-8.954-20-20 8.954-20 20-20 20 8.954 20 20z" style="display:block" transform="translate(649.886 676.873) scale(12.97)"/></mask><mask id="e" mask-type="alpha"/><mask id="d" mask-type="alpha"/><mask id="c" mask-type="alpha"><path fill="#5258F4" d="M11.451 0c0 6.324-5.127 11.451-11.451 11.451-6.324 0-11.451-5.127-11.451-11.451 0-6.324 5.127-11.451 11.451-11.451 6.324 0 11.451 5.127 11.451 11.451z" style="display:block" transform="translate(312.39 313.205) scale(12.97)"/></mask><mask id="b" mask-type="alpha"/><clipPath id="a"><path d="M0 0h1080v1080H0z"/></clipPath></defs><g clip-path="url(#a)"><path fill="#5258F4" d="M11.451 0c0 6.324-5.127 11.451-11.451 11.451-6.324 0-11.451-5.127-11.451-11.451 0-6.324 5.127-11.451 11.451-11.451 6.324 0 11.451 5.127 11.451 11.451z" style="display:block" transform="translate(312.39 313.205) scale(12.97)"/><path fill="#5258F4" d="M20 0c0 11.046-8.954 20-20 20s-20-8.954-20-20 8.954-20 20-20 20 8.954 20 20z" style="display:block" transform="translate(649.886 676.873) scale(12.97)"/><g mask="url(#c)" style="display:block"><path fill="#F6ADBC" d="M417.107 437.023c0 53.32-43.217 96.536-96.536 96.536-53.32 0-96.536-43.216-96.536-96.536s43.216-96.535 96.536-96.535 96.536 43.216 96.536 96.535zM392.943 266.118c0 32.814-26.588 59.402-59.402 59.402s-59.403-26.588-59.403-59.402c0-32.815 26.589-59.403 59.403-59.403s59.402 26.588 59.402 59.403z"/><path fill="none" stroke="#15182F" stroke-linejoin="round" stroke-width="9.727500000000001" d="M344.903 236.39c0 18.989-15.395 34.371-34.383 34.371-18.989 0-34.384-15.382-34.384-34.37"/></g><g mask="url(#f)" style="display:block"><path fill="#FFBF55" d="M818.496 893.142c0 93.125-75.486 168.61-168.61 168.61-93.125 0-168.61-75.485-168.61-168.61 0-93.125 75.485-168.61 168.61-168.61 93.124 0 168.61 75.485 168.61 168.61zM749.664 620.578c0 57.302-46.459 103.76-103.76 103.76s-103.76-46.458-103.76-103.76c0-57.301 46.459-103.76 103.76-103.76s103.76 46.459 103.76 103.76z"/><path fill="none" stroke="#15182F" stroke-linejoin="round" stroke-width="9.727500000000001" d="M691.998 646.518c0 33.164-26.887 60.051-60.051 60.051s-60.051-26.887-60.051-60.05"/></g><path fill="none" stroke="#15182F" stroke-linejoin="round" stroke-width=".75" d="M8.517 18.101A19.923 19.923 0 0 1 0 20c-9.13 0-16.83-6.117-19.227-14.476" style="display:block" transform="translate(649.886 674.138) scale(12.97)"/><path fill="none" stroke="#15182F" stroke-linejoin="round" stroke-width=".75" d="M8.524-7.088A11.401 11.401 0 0 1 10.981 0c0 5.145-3.393 9.497-8.063 10.941" style="display:block" transform="translate(318.49 317.286) scale(12.97)"/></g></svg>