<svg xmlns="http://www.w3.org/2000/svg" width="1080" height="1080" style="width:100%;height:100%;transform:translate3d(0,0,0);content-visibility:visible"><defs><clipPath id="a"><path d="M0 0h1080v1080H0z"/></clipPath><mask id="b" mask-type="alpha"><path fill="#F6ADBC" d="M21.664 0c0 11.965-9.699 21.664-21.664 21.664-11.965 0-21.664-9.699-21.664-21.664 0-11.965 9.699-21.664 21.664-21.664 11.965 0 21.664 9.699 21.664 21.664z" style="display:block" transform="matrix(16.2176 -.48302 .48302 16.2176 532.156 596.211)"/></mask></defs><g clip-path="url(#a)"><path fill="none" stroke="#15182F" stroke-miterlimit="10" stroke-width=".75" d="M6.514-11.295c0 9.65-5.239 18.077-13.028 22.59" style="display:block" transform="matrix(16.2176 -.48302 .48302 16.2176 852.271 783.328)"/><path fill="none" stroke="#15182F" stroke-miterlimit="10" stroke-width=".75" d="M-6.789 11.449c0-9.875 5.487-18.468 13.578-22.898" style="display:block" transform="matrix(16.2176 -.48302 .48302 16.2176 214.716 427.033)"/><g style="display:block"><path fill="#15182F" d="m568.385 380.949-85.207 2.538-5.871-197.142 85.207-2.537 5.871 197.14z"/><path fill="#15182F" d="m399.872 227.487-2.311-77.585 242.388-7.22 2.311 77.585-242.388 7.22z"/></g><path fill="#15182F" d="m-3.909 7.829-3.92-3.92L3.909-7.829l3.92 3.92L-3.909 7.829z" style="display:block" transform="matrix(16.2176 -.48302 .48302 16.2176 766.834 337.756)"/><path fill="#F6ADBC" d="M21.664 0c0 11.965-9.699 21.664-21.664 21.664-11.965 0-21.664-9.699-21.664-21.664 0-11.965 9.699-21.664 21.664-21.664 11.965 0 21.664 9.699 21.664 21.664z" style="display:block" transform="matrix(16.2176 -.48302 .48302 16.2176 532.156 596.211)"/><path fill="#F6ADBC" d="M21.664 0c0 11.965-9.699 21.664-21.664 21.664-11.965 0-21.664-9.699-21.664-21.664 0-11.965 9.699-21.664 21.664-21.664 11.965 0 21.664 9.699 21.664 21.664z" style="display:block" transform="matrix(16.2176 -.48302 .48302 16.2176 532.156 596.211)"/><g mask="url(#b)" style="display:block"><path fill="#5258F4" d="m185 334-316 250L15 958l476 160 252-34-558-750z"/></g><path fill="none" stroke="#FFF" stroke-miterlimit="10" d="M12.174 13.582a17.469 17.469 0 0 1-6.822 1.377c-9.679 0-17.526-7.847-17.526-17.526 0-4.84 1.961-9.22 5.133-12.392" style="display:block" transform="matrix(16.2176 -.48302 .48302 16.2176 446.599 640.41)"/><path fill="none" stroke="#15182F" stroke-miterlimit="10" stroke-width=".75" d="M-5.882-8.278C.967-5.895 5.882.617 5.882 8.278" style="display:block" transform="matrix(16.2176 -.48302 .48302 16.2176 709.913 453.447)"/><path fill="none" stroke="#15182F" stroke-width="60" d="M159 125-16 45" style="display:block" transform="rotate(-8.529 3890.358 -3230.501) scale(1.01405)"/><path fill="none" stroke="#15182F" stroke-width="60" d="M2 71v-214" style="display:block" transform="rotate(-35.817 1101.321 -496.856) scale(1.01405)"/></g></svg>