<svg xmlns="http://www.w3.org/2000/svg" width="1080" height="1080" style="width:100%;height:100%;transform:translate3d(0,0,0);content-visibility:visible"><defs><mask id="d" mask-type="alpha"><path fill="#5258F4" d="M21.44 0c0 11.841-9.599 21.44-21.44 21.44-11.841 0-21.44-9.599-21.44-21.44 0-11.841 9.599-21.44 21.44-21.44 11.841 0 21.44 9.599 21.44 21.44z" style="display:block" transform="matrix(15 0 0 15 540.076 540)"/></mask><mask id="g" mask-type="alpha"><g filter="url(#a)"/></mask><mask id="f" mask-type="alpha"><g filter="url(#b)"/></mask><clipPath id="c"><path d="M0 0h1080v1080H0z"/></clipPath><clipPath id="e"><path d="M0 0h1080v1080H0z"/></clipPath><filter id="a" width="100%" height="100%" x="0%" y="0%" filterUnits="objectBoundingBox"><feComponentTransfer in="SourceGraphic"><feFuncA tableValues="1.0 0.0" type="table"/></feComponentTransfer></filter><filter id="b" width="100%" height="100%" x="0%" y="0%" filterUnits="objectBoundingBox"><feComponentTransfer in="SourceGraphic"><feFuncA tableValues="1.0 0.0" type="table"/></feComponentTransfer></filter></defs><g clip-path="url(#c)"><path fill="none" stroke="#15182F" stroke-miterlimit="10" stroke-width=".75" d="M-21.249 7.588C-16.338-1.452-6.761-7.588 4.25-7.588a28.87 28.87 0 0 1 16.999 5.502" style="display:block" transform="matrix(15 0 0 15 476.244 218.827)"/><path fill="none" stroke="#15182F" stroke-miterlimit="10" stroke-width=".75" d="M8.42 14.725C-1.522 10.127-8.42.064-8.42-11.61c0-1.052.056-2.092.165-3.115" style="display:block" transform="matrix(15 0 0 15 231.3 714.151)"/><path fill="none" stroke="#15182F" stroke-miterlimit="10" stroke-width=".75" d="M12.006-20.392A28.902 28.902 0 0 1 14.5-8.608c0 16.016-12.984 29-29 29" style="display:block" transform="matrix(15 0 0 15 757.5 669.128)"/><path fill="#5258F4" d="M21.44 0c0 11.841-9.599 21.44-21.44 21.44-11.841 0-21.44-9.599-21.44-21.44 0-11.841 9.599-21.44 21.44-21.44 11.841 0 21.44 9.599 21.44 21.44z" style="display:block" transform="matrix(15 0 0 15 540.076 540)"/><g mask="url(#d)" style="display:block"><g clip-path="url(#e)"><path fill="#F6ADBC" d="m3.279-22.465-6.419.651h-6.604l-.605 3.488-5.256 4.652-.046 2.174 5.581-1.198.698 5.954 5.395.604-.139 2.931h-8.512l-4.325 9.069 1.643 1.489 5.705.744 2.279 14.372 4.931-.828L2.767 6.465s-4.372-9.581-4.279-9.721c.093-.14-.511-2.186-.511-2.186l12.432.328 6.544-4.793-2.79-12-10.884-.558z" style="display:block" transform="matrix(15 0 0 15 -155.918 665.447)"/><path fill="#F6ADBC" d="M-5.977-19.581h18.233v3.86l-4.93 2.791-.419 7.721-13.209 2.093-.465 1.535 7.674.976L3.092 4.56l-4.139 5.533-2.93 9.488h-1.535l-4.744-13.953 1.303-9.907s-2.512-5.581-2.559-6.186c-.047-.605-.744-6.512-.744-6.512l6.279-2.604z" style="display:block" transform="matrix(15 0 0 15 -613.688 575.102)"/><path fill="#F6ADBC" d="m3.279-22.465-6.419.651h-6.604l-.605 3.488-5.256 4.652-.046 2.174 5.581-1.198.698 5.954 5.395.604-.139 2.931h-8.512l-4.325 9.069 1.643 1.489 5.705.744 2.279 14.372 4.931-.828L2.767 6.465s-4.372-9.581-4.279-9.721c.093-.14-.511-2.186-.511-2.186l12.432.328 6.544-4.793-2.79-12-10.884-.558z" style="display:block" transform="matrix(15 0 0 15 814.087 665.447)"/><path fill="#F6ADBC" d="M-5.977-19.581h18.233v3.86l-4.93 2.791-.419 7.721-13.209 2.093-.465 1.535 7.674.976L3.092 4.56l-4.139 5.533-2.93 9.488h-1.535l-4.744-13.953 1.303-9.907s-2.512-5.581-2.559-6.186c-.047-.605-.744-6.512-.744-6.512l6.279-2.604z" style="display:block" transform="matrix(15 0 0 15 356.317 575.102)"/></g></g><path fill="#15182F" d="M1 0a1 1 0 1 1-2 0 1 1 0 0 1 2 0z" style="display:block" transform="matrix(15 0 0 15 865.463 260.832)"/><path fill="#15182F" d="M1 0a1 1 0 1 1-2 0 1 1 0 0 1 2 0z" style="display:block" transform="matrix(15 0 0 15 128.48 415.75)"/><path fill="#15182F" d="M1 0a1 1 0 1 1-2 0 1 1 0 0 1 2 0z" style="display:block" transform="matrix(15 0 0 15 446.54 964.76)"/></g></svg>