<svg xmlns="http://www.w3.org/2000/svg" width="1080" height="1080" style="width:100%;height:100%;transform:translate3d(0,0,0);content-visibility:visible"><defs><clipPath id="b"><path d="M0 0h1080v1080H0z"/></clipPath><clipPath id="k"><path d="M0 0h1080v1080H0z"/></clipPath><clipPath id="j"><path d="M0 0h1080v1080H0z"/></clipPath><clipPath id="h"><path d="M0 0h1080v1080H0z"/></clipPath><clipPath id="g"><path d="M0 0h1080v1080H0z"/></clipPath><clipPath id="f"><path d="M0 0h1080v1080H0z"/></clipPath><clipPath id="d"><path d="M0 0h1080v1080H0z"/></clipPath><mask id="i" mask-type="alpha"/><mask id="e" mask-type="alpha"><g filter="url(#a)"/></mask><mask id="c" mask-type="alpha"/><filter id="a" width="100%" height="100%" x="0%" y="0%" filterUnits="objectBoundingBox"><feComponentTransfer in="SourceGraphic"><feFuncA tableValues="1.0 0.0" type="table"/></feComponentTransfer></filter></defs><g clip-path="url(#b)"><path fill="#5258F4" d="M482 291h-966.5v15.5H482V291z" style="display:block" transform="matrix(1.08 0 0 0 540.152 194.9)"/><path fill="#FFBF55" d="M7.331-5.124H-7.331L-8.82 5.124H8.82L7.331-5.124z" style="display:block" transform="matrix(15.2 0 0 15.2 538.1 803.495)"/><path fill="#15182F" d="M-7.148-1.474H7.577L-7.577 1.474l.429-2.948z" style="display:block" transform="matrix(15.2 0 0 15.2 535.318 748.015)"/><path fill="#FFBF55" d="M429-268.732v537.464a2.27 2.27 0 0 1-2.268 2.268h-853.464a2.27 2.27 0 0 1-2.268-2.268v-537.464a2.27 2.27 0 0 1 2.268-2.268h853.464a2.27 2.27 0 0 1 2.268 2.268z" style="display:block" transform="translate(538 462)"/><path fill="none" d="m-15.546 0 41.75-.03" style="display:block" transform="matrix(15.2 0 0 15.2 538.473 194.547)"/><g style="display:block"><path fill="#FFBF55" d="M735.831 238H917"/><path fill="none" stroke="#15182F" stroke-linejoin="round" stroke-width="13" d="M735.831 238H917"/></g></g></svg>