<svg xmlns="http://www.w3.org/2000/svg" width="1080" height="1080" style="width:100%;height:100%;transform:translate3d(0,0,0);content-visibility:visible"><defs><clipPath id="b"><path d="M0 0h1080v1080H0z"/></clipPath><clipPath id="k"><path d="M0 0h1080v1080H0z"/></clipPath><clipPath id="j"><path d="M0 0h1080v1080H0z"/></clipPath><clipPath id="h"><path d="M0 0h1080v1080H0z"/></clipPath><clipPath id="g"><path d="M0 0h1080v1080H0z"/></clipPath><clipPath id="f"><path d="M0 0h1080v1080H0z"/></clipPath><clipPath id="d"><path d="M0 0h1080v1080H0z"/></clipPath><mask id="i" mask-type="alpha"/><mask id="e" mask-type="alpha"><g filter="url(#a)"><path fill="#FFBF55" d="M32-32v64h-64v-64h64z" style="display:block" transform="matrix(.99996 0 0 .99996 533.996 583)"/></g></mask><mask id="c" mask-type="alpha"><path fill="#FFBF55" d="M22.463-5.154 0-5.124l-22.331-.03-9.384 10.249L0 5.124l31.846-.029-9.383-10.249z" style="display:block" transform="matrix(15.2 0 0 15.2 538.1 753.157)"/></mask><filter id="a" width="100%" height="100%" x="0%" y="0%" filterUnits="objectBoundingBox"><feComponentTransfer in="SourceGraphic"><feFuncA tableValues="1.0 0.0" type="table"/></feComponentTransfer></filter></defs><g clip-path="url(#b)"><path fill="#5258F4" d="M482 291h-966.5v15.5H482V291z" style="display:block" transform="matrix(1.08 0 0 1.71185 540.152 312.318)"/><path fill="#FFBF55" d="M22.463-5.154 0-5.124l-22.331-.03-12.015 8.933L0 3.809l34.478-.03-12.015-8.933z" style="display:block" transform="matrix(15.2 0 0 15.2 538.1 753.157)"/><g mask="url(#c)" style="display:block"><g clip-path="url(#d)" transform="matrix(1 0 0 1 -.004 -11.002)"><g style="display:block"><path fill="#FFBF55" d="m242.5 796 42-77"/><path fill="none" stroke="#15182F" stroke-width="10" d="m242.5 796 42-77"/></g><g style="display:block"><path fill="#FFBF55" d="m342.5 753 17.5-34"/><path fill="none" stroke="#15182F" stroke-width="10" d="m342.5 753 17.5-34"/></g><g style="display:block"><path fill="#FFBF55" d="m543.5 753-8-34"/><path fill="none" stroke="#15182F" stroke-width="10" d="m543.5 753-8-34"/></g><g style="display:block"><path fill="#FFBF55" d="M214.25 719h456.5"/><path fill="none" stroke="#15182F" stroke-width="10" d="M214.25 719h456.5"/></g><g style="display:block"><path fill="#FFBF55" d="M195.5 753h490"/><path fill="none" stroke="#15182F" stroke-width="10" d="M195.5 753h490"/></g><g style="display:block"><path fill="#FFBF55" d="m627 796-18.5-77"/><path fill="none" stroke="#15182F" stroke-width="10" d="m627 796-18.5-77"/></g><path fill="none" stroke="#15182F" stroke-width="10" d="M178.5 154 212 256h186" style="display:block" transform="translate(540 540)"/><g style="display:block"><path fill="#FFBF55" d="M739 753h129.5"/><path fill="none" stroke="#15182F" stroke-width="10" d="M739 753h129.5"/></g><g style="display:block"><path fill="#FFBF55" d="M726 719h73"/><path fill="none" stroke="#15182F" stroke-width="10" d="M726 719h73"/></g></g></g><path fill="none" stroke="#15182F" stroke-miterlimit="10" stroke-width=".75" d="m-15.546 0 41.75-.03" style="display:block" transform="matrix(15.2 0 0 15.2 538.473 808.547)"/><path fill="#15182F" d="m-22.165-1.495 40.005-.06-41.65 1.301 1.645-1.241z" style="display:block" transform="matrix(15.2 0 0 15.2 535.569 698.174)"/><path fill="#FFBF55" d="M-27.266 17.806h54.532c.54 0 .978-.438.978-.978v-33.656a.978.978 0 0 0-.978-.978h-54.532a.978.978 0 0 0-.978.978v33.656c0 .54.438.978.978.978z" style="display:block" transform="matrix(12 0 0 12 538.1 462.11)"/><g mask="url(#e)" style="display:block"><path fill="none" stroke="#15182F" stroke-miterlimit="10" stroke-width="6" d="M551.516 596.582c0 7.404-6.012 13.416-13.416 13.416-7.404 0-13.416-6.012-13.416-13.416 0-7.404 6.012-13.416 13.416-13.416 7.404 0 13.416 6.012 13.416 13.416z"/></g><g style="display:block"><path fill="#FFBF55" d="M837.234 285.182v350.28H236.44v-350.28h600.794z"/><path fill="none" stroke="#15182F" stroke-linejoin="round" stroke-width="13" d="M380.5-208.5v417h-761v-417h761z" transform="matrix(.78948 0 0 .84 536.837 460.322)"/></g><g clip-path="url(#g)" style="display:block" transform="matrix(.78948 0 0 .78948 113.28 119.287)"><path fill="none" stroke="#5258F4" stroke-width="60" d="M0-137c-75.663 0-137 61.337-137 137S-75.663 137 0 137 137 75.663 137 0 75.663-137 0-137z" style="display:block" transform="translate(537 433)"/><path fill="none" stroke="#FFF" stroke-width="60" d="M0-137c-75.663 0-137 61.337-137 137S-75.663 137 0 137c48.653 0 91.382-25.361 115.689-63.585" style="display:block" transform="translate(537 433)"/><path fill="none" stroke="#15182F" stroke-width="60" d="M0-137c-30.096 0-57.926 9.705-80.53 26.155" style="display:block" transform="translate(537 433)"/><path fill="none" stroke="#15182F" stroke-width="30" d="M-361-285h88" style="display:block" transform="translate(540 540)"/><path fill="none" stroke="#15182F" stroke-width="30" d="M-361-285h44" style="display:block" transform="translate(540 589)"/></g></g></svg>