<svg xmlns="http://www.w3.org/2000/svg" width="1080" height="1080" style="width:100%;height:100%;transform:translate3d(0,0,0);content-visibility:visible"><defs><mask id="m" mask-type="alpha"><g filter="url(#a)"><path fill="#FFBF54" d="M300-83V83c0 9.382-7.618 17-17 17h-566c-9.382 0-17-7.618-17-17V-83c0-9.382 7.618-17 17-17h566c9.382 0 17 7.618 17 17z" style="display:block" transform="translate(670.891 1029.995)"/></g></mask><mask id="o" mask-type="alpha"><path fill="#FFBF54" d="M300-83V83c0 9.382-7.618 17-17 17h-566c-9.382 0-17-7.618-17-17V-83c0-9.382 7.618-17 17-17h566c9.382 0 17 7.618 17 17z" style="display:block" transform="translate(934.891 1305.204)"/></mask><mask id="l" mask-type="alpha"><path fill="#FFBF55" d="M1.165 5.174V-5.323a1 1 0 0 0-1-1l-17.958.074a1 1 0 0 0-1 1V5.249a1 1 0 0 0 1 1L.165 6.174a1 1 0 0 0 1-1z" style="display:block" transform="matrix(15.94 0 0 15.94 407.37 549.998)"/></mask><mask id="k" mask-type="alpha"><path fill="#FFBF55" d="M1.165 5.174V-5.323a1 1 0 0 0-1-1l-17.958.074a1 1 0 0 0-1 1V5.249a1 1 0 0 0 1 1L.165 6.174a1 1 0 0 0 1-1z" style="display:block" transform="matrix(15.94 0 0 15.94 407.37 549.998)"/></mask><mask id="g" mask-type="alpha"><path fill="#5258F4" d="M18.793 5.249V-5.249a1 1 0 0 0-1-1h-35.586a1 1 0 0 0-1 1V5.249a1 1 0 0 0 1 1h35.586a1 1 0 0 0 1-1z" style="display:block" transform="matrix(15.94 0 0 15.94 407.37 751.932)"/></mask><mask id="f" mask-type="alpha"><path fill="#5258F4" d="M18.793 5.249V-5.249a1 1 0 0 0-1-1h-35.586a1 1 0 0 0-1 1V5.249a1 1 0 0 0 1 1h35.586a1 1 0 0 0 1-1z" style="display:block" transform="matrix(15.94 0 0 15.94 407.37 751.932)"/></mask><mask id="e" mask-type="alpha"><path fill="#FFBF55" d="M1.165 5.174V-5.323a1 1 0 0 0-1-1l-17.958.074a1 1 0 0 0-1 1V5.249a1 1 0 0 0 1 1L.165 6.174a1 1 0 0 0 1-1z" style="display:block" transform="matrix(15.94 0 0 15.94 407.37 549.998)"/></mask><mask id="d" mask-type="alpha"><path fill="#FFBF55" d="M1.165 5.174V-5.323a1 1 0 0 0-1-1l-17.958.074a1 1 0 0 0-1 1V5.249a1 1 0 0 0 1 1L.165 6.174a1 1 0 0 0 1-1z" style="display:block" transform="matrix(15.94 0 0 15.94 407.37 549.998)"/></mask><mask id="h" mask-type="alpha"><path fill="#FFBF54" d="M300-83V83c0 9.382-7.618 17-17 17h-566c-9.382 0-17-7.618-17-17V-83c0-9.382 7.618-17 17-17h566c9.382 0 17 7.618 17 17z" style="display:block" transform="translate(671.003 272.889)"/></mask><clipPath id="b"><path d="M0 0h1080v1080H0z"/></clipPath><clipPath id="n"><path d="M0 0h1080v1080H0z"/></clipPath><clipPath id="p"><path d="M0 0h1080v1080H0z"/></clipPath><clipPath id="j"><path d="M0 0h1080v1080H0z"/></clipPath><clipPath id="c"><path d="M0 0h1080v1080H0z"/></clipPath><clipPath id="i"><path d="M0 0h1080v1080H0z"/></clipPath><filter id="a" width="100%" height="100%" x="0%" y="0%" filterUnits="objectBoundingBox"><feComponentTransfer in="SourceGraphic"><feFuncA tableValues="1.0 0.0" type="table"/></feComponentTransfer></filter></defs><g clip-path="url(#b)"><g clip-path="url(#c)" style="display:block" transform="translate(.003 -.111)"><path fill="#FFBF55" d="M18.793 5.249V-5.249a1 1 0 0 0-1-1h-35.586a1 1 0 0 0-1 1V5.249a1 1 0 0 0 1 1h35.586a1 1 0 0 0 1-1z" style="display:block" transform="matrix(15.94 0 0 15.94 407.37 549.998)"/><path fill="#5258F4" d="M1.708 0a1.708 1.708 0 1 1-3.417 0 1.708 1.708 0 0 1 3.417 0z" style="display:block" transform="matrix(15.94 0 0 15.94 182.698 549.998)"/><g mask="url(#d)" style="display:block"><path fill="#5258F4" d="M262 549.998z"/></g><g mask="url(#e)" style="display:block"><path fill="#5258F4" d="M342.778 549.998z"/></g><path fill="none" stroke="#15182F" stroke-width="12" d="M-278 10H83" style="display:block" transform="translate(540 540)"/><g mask="url(#f)" style="display:block"><path fill="#5258F4" d="M706.93 633.667V466.329c0-8.799-7.14-15.94-15.94-15.94H123.75c-8.8 0-15.94 7.141-15.94 15.94v167.338c0 8.799 7.14 15.94 15.94 15.94h567.24c8.8 0 15.94-7.141 15.94-15.94z"/></g><g mask="url(#g)" style="display:block"><path fill="#FFBF55" d="M209.924 549.998c0 15.031-12.195 27.226-27.226 27.226-15.031 0-27.226-12.195-27.226-27.226 0-15.031 12.195-27.226 27.226-27.226 15.031 0 27.226 12.195 27.226 27.226z"/></g></g><g mask="url(#h)" style="display:block"><g clip-path="url(#i)" transform="translate(264.067 -275.714)"><path fill="#5258F4" d="M18.793 5.249V-5.249a1 1 0 0 0-1-1h-35.586a1 1 0 0 0-1 1V5.249a1 1 0 0 0 1 1h35.586a1 1 0 0 0 1-1z" style="display:block" transform="matrix(15.94 0 0 15.94 407.37 549.998)"/><path fill="#FFBF55" d="M1.708 0a1.708 1.708 0 1 1-3.417 0 1.708 1.708 0 0 1 3.417 0z" style="display:block" transform="matrix(15.94 0 0 15.94 182.698 549.998)"/><path fill="none" stroke="#FFF" stroke-miterlimit="10" stroke-width=".75" d="M-11.256 0h22.512" style="display:block" transform="matrix(15.94 0 0 15.94 442.718 549.998)"/></g></g><g clip-path="url(#j)" style="display:block" transform="translate(263.891 275.204)"><path fill="#FFBF55" d="M18.793 5.249V-5.249a1 1 0 0 0-1-1h-35.586a1 1 0 0 0-1 1V5.249a1 1 0 0 0 1 1h35.586a1 1 0 0 0 1-1z" style="display:block" transform="matrix(15.94 0 0 15.94 407.37 549.998)"/><path fill="#5258F4" d="M1.708 0a1.708 1.708 0 1 1-3.417 0 1.708 1.708 0 0 1 3.417 0z" style="display:block" transform="matrix(15.94 0 0 15.94 182.698 549.998)"/><g mask="url(#k)" style="display:block"><path fill="#5258F4" d="M262 549.998z"/></g><g mask="url(#l)" style="display:block"><path fill="#5258F4" d="M342.778 549.998z"/></g><path fill="none" stroke="#15182F" stroke-miterlimit="10" stroke-width=".75" d="M-11.256 0h22.512" style="display:block" transform="matrix(15.94 0 0 15.94 442.718 549.998)"/></g><g mask="url(#m)" style="display:block"><g clip-path="url(#n)" transform="translate(263.955 275.601)"><path fill="#5258F4" d="M18.793 5.249V-5.249a1 1 0 0 0-1-1h-35.586a1 1 0 0 0-1 1V5.249a1 1 0 0 0 1 1h35.586a1 1 0 0 0 1-1z" style="display:block" transform="matrix(15.94 0 0 15.94 407.37 549.998)"/><path fill="#FFBF55" d="M1.708 0a1.708 1.708 0 1 1-3.417 0 1.708 1.708 0 0 1 3.417 0z" style="display:block" transform="matrix(15.94 0 0 15.94 182.698 549.998)"/><path fill="none" stroke="#FFF" stroke-miterlimit="10" stroke-width=".75" d="M-11.256 0h22.512" style="display:block" transform="matrix(15.94 0 0 15.94 442.718 549.998)"/></g></g><g mask="url(#o)" style="display:block"><g clip-path="url(#p)" transform="translate(527.955 550.81)"><path fill="#5258F4" d="M18.793 5.249V-5.249a1 1 0 0 0-1-1h-35.586a1 1 0 0 0-1 1V5.249a1 1 0 0 0 1 1h35.586a1 1 0 0 0 1-1z" style="display:block" transform="matrix(15.94 0 0 15.94 407.37 549.998)"/><path fill="#FFBF55" d="M1.708 0a1.708 1.708 0 1 1-3.417 0 1.708 1.708 0 0 1 3.417 0z" style="display:block" transform="matrix(15.94 0 0 15.94 182.698 549.998)"/><path fill="none" stroke="#FFF" stroke-miterlimit="10" stroke-width=".75" d="M-11.256 0h22.512" style="display:block" transform="matrix(15.94 0 0 15.94 442.718 549.998)"/></g></g></g></svg>